<svg xmlns="http://www.w3.org/2000/svg" viewBox="0 0 50.45 39.63"><defs><style>.cls-1{fill:none;}</style></defs><g id="Layer_2" data-name="Layer 2"><g id="Calque_1" data-name="Calque 1"><path d="M48.54,26.82a5.3,5.3,0,0,0-1-1.42l0,0-.19-.18a4.83,4.83,0,0,0-.86-.72c-2.94-2.16-8.1-3.65-13.68-7.52-4.95-3.44-7.53-8.26-11-11.7A12.15,12.15,0,0,0,12.13,1C5.9,1,.84,5,.84,9.9s5.06,8.91,11.29,8.91c7.87,0,13.49-1.63,19.27,1.84s6.69,5.91,6.75,10.63c.08,5.11,2.57,7.64,5.74,7.64s5.73-3.42,5.73-7.64A9.43,9.43,0,0,0,48.54,26.82Z"/><rect class="cls-1" width="50.45" height="39.63"/></g></g></svg>