<svg xmlns="http://www.w3.org/2000/svg" viewBox="0 0 63.23 33.96"><defs><style>.cls-1{fill:#212121;}.cls-2{fill:none;}</style></defs><g id="Layer_2" data-name="Layer 2"><g id="Calque_1" data-name="Calque 1"><polygon class="cls-1" points="1.45 30.09 1.45 30.95 2.98 30.95 1.45 30.09"/><polygon class="cls-1" points="44.41 1.28 39.87 23.87 57.34 1.28 44.41 1.28"/><polygon class="cls-1" points="23.34 23.87 18.8 1.28 5.87 1.28 23.34 23.87"/><polygon class="cls-1" points="30.61 1.28 20.56 1.28 28.77 22.27 30.61 1.28"/><polygon class="cls-1" points="34.43 22.27 42.64 1.28 32.6 1.28 34.43 22.27"/><polygon class="cls-1" points="44.63 26.93 61.71 14.56 61.71 1.28 58.11 1.28 44.63 26.93"/><polygon class="cls-1" points="18.58 26.93 5.09 1.28 1.45 1.28 1.45 14.52 18.58 26.93"/><polygon class="cls-1" points="1.45 26.44 14.15 30.95 14.62 30.95 1.45 17.36 1.45 26.44"/><polygon class="cls-1" points="48.59 30.95 49.06 30.95 61.71 26.46 61.71 17.41 48.59 30.95"/><polygon class="cls-1" points="61.71 30.11 60.23 30.95 61.71 30.95 61.71 30.11"/><rect class="cls-2" width="63.23" height="33.96"/></g></g></svg>