<svg xmlns="http://www.w3.org/2000/svg" viewBox="0 0 65.64 65.64"><defs><style>.cls-1{fill:#212121;}.cls-2{fill:none;}</style></defs><g id="Layer_2" data-name="Layer 2"><g id="Calque_1" data-name="Calque 1"><path class="cls-1" d="M57.5,52.48A9.45,9.45,0,0,1,38.88,54.6c-2.37-6.2.75-18.92-6.78-18.92-8.36,0-4.14,8.1-10.54,14.29a7.44,7.44,0,0,1-5.63,2.6,7.6,7.6,0,0,1-7.51-7.69,7.76,7.76,0,0,1,2.42-5.65l0,0a8.06,8.06,0,0,1,.72-.59l.07,0a10.36,10.36,0,0,1,2-1l0,0c5-2,13.5-2.83,13.77-7.2.3-4.89-4.07-7.27-6.57-14.72a15.28,15.28,0,0,1-.9-3.86c0-4.33,3.12-7.86,7-7.86s6.92,3.46,7,7.74v.12c.18,5.88-6.41,13.93-1.67,17.27,5.29,3.74,7.21-7,13.07-9.06a3.6,3.6,0,0,1,.7-.18,9.45,9.45,0,0,1,2.69-.39c4.15,0,7.52,2.59,7.52,5.77,0,2.91-2.82,5.32-6.48,5.71h0c-4.85,1.05-9.54-1.62-11.32,2.63C36.53,38.1,45.92,40.42,52,44.07A9.25,9.25,0,0,1,57.5,52.48Z"/><rect class="cls-2" width="65.64" height="65.64"/></g></g></svg>