<svg xmlns="http://www.w3.org/2000/svg" viewBox="0 0 65.64 68.37"><defs><style>.cls-1,.cls-2{fill:none;}.cls-1{stroke:#000;stroke-miterlimit:10;}</style></defs><g id="Layer_2" data-name="Layer 2"><g id="Calque_1" data-name="Calque 1"><path class="cls-1" d="M40,43.79a30.14,30.14,0,0,0,.45,18.61,15.79,15.79,0,0,0-7.08-5.53c-6-2.28-12.82-.47-19,4.25,5.84-11.1,6.07-22.55-.44-28.89a15,15,0,0,0-2.17-1.73,21.14,21.14,0,0,0,5.21,0C28.14,28.94,36.62,18.65,39.55,5,39.46,14.19,43.17,22,50,25a14.9,14.9,0,0,0,4.17,1.12A30.53,30.53,0,0,0,40,43.79Z"/><rect class="cls-2" y="2.73" width="65.64" height="65.64"/></g></g></svg>