<svg xmlns="http://www.w3.org/2000/svg" viewBox="0 0 65.64 65.64"><defs><style>.cls-1,.cls-2{fill:none;}.cls-1{stroke:#000;stroke-miterlimit:10;}</style></defs><g id="Layer_2" data-name="Layer 2"><g id="Calque_1" data-name="Calque 1"><polygon class="cls-1" points="32.96 2.58 34.6 21.39 41.48 3.81 37.76 22.31 49.31 7.38 40.52 24.09 55.81 13.02 42.67 26.57 60.46 20.26 44.04 29.57 62.89 28.52 44.51 32.82 62.89 37.12 44.04 36.07 60.46 45.38 42.67 39.06 55.81 52.62 40.52 41.55 49.31 58.26 37.76 43.32 41.48 61.83 34.6 44.25 32.96 63.05 31.32 44.25 24.44 61.83 28.16 43.32 16.61 58.26 25.4 41.55 10.11 52.62 23.24 39.06 5.46 45.38 21.88 36.07 3.03 37.12 21.41 32.82 3.03 28.52 21.88 29.57 5.46 20.26 23.24 26.57 10.11 13.02 25.4 24.09 16.61 7.38 28.16 22.31 24.44 3.81 31.32 21.39 32.96 2.58"/><rect class="cls-2" width="65.64" height="65.64"/></g></g></svg>