<svg xmlns="http://www.w3.org/2000/svg" viewBox="0 0 65.64 65.64"><defs><style>.cls-1{fill:#222;}.cls-2{fill:none;}</style></defs><g id="Layer_2" data-name="Layer 2"><g id="Calque_1" data-name="Calque 1"><path class="cls-1" d="M40,41.06a30.14,30.14,0,0,0,.45,18.61,15.86,15.86,0,0,0-7.08-5.53c-6-2.28-12.82-.47-19,4.25,5.84-11.1,6.07-22.55-.44-28.89a15,15,0,0,0-2.17-1.73,21.14,21.14,0,0,0,5.21,0c11.2-1.52,19.68-11.81,22.61-25.51C39.46,11.47,43.17,19.29,50,22.28a14.57,14.57,0,0,0,4.17,1.12A30.56,30.56,0,0,0,40,41.06Z"/><rect class="cls-2" width="65.64" height="65.64"/></g></g></svg>