<svg xmlns="http://www.w3.org/2000/svg" viewBox="0 0 1283.33 546.16"><defs><style>.cls-1{fill:#fff;}</style></defs><g id="Layer_2" data-name="Layer 2"><g id="Fond"><polygon class="cls-1" points="0 530.18 0 546.16 32.62 546.16 0 530.18"/><polygon class="cls-1" points="914.88 0 818.16 415.75 1190.23 0 914.88 0"/><polygon class="cls-1" points="466.21 415.75 369.5 0 94.15 0 466.21 415.75"/><polygon class="cls-1" points="620.98 0 407.08 0 581.9 386.39 620.98 0"/><polygon class="cls-1" points="702.48 386.39 877.3 0 663.4 0 702.48 386.39"/><polygon class="cls-1" points="919.6 472.09 1283.34 244.39 1283.34 0 1206.74 0 919.6 472.09"/><polygon class="cls-1" points="364.78 472.09 77.64 0 0 0 0 243.74 364.78 472.09"/><polygon class="cls-1" points="0 463.13 270.53 546.16 280.56 546.16 0 295.88 0 463.13"/><polygon class="cls-1" points="1003.82 546.16 1013.85 546.16 1283.34 463.44 1283.34 296.81 1003.82 546.16"/><polygon class="cls-1" points="1283.34 530.69 1251.76 546.16 1283.34 546.16 1283.34 530.69"/></g></g></svg>