<svg xmlns="http://www.w3.org/2000/svg" viewBox="0 0 51 27"><defs><style>.cls-1{fill:#f15a24;}.cls-2{fill:none;}</style></defs><g id="Layer_2" data-name="Layer 2"><g id="Fond"><polygon class="cls-1" points="0.97 25.29 2.22 25.29 0.97 24.58 0.97 25.29"/><polygon class="cls-1" points="35.92 1.18 32.23 19.53 46.44 1.18 35.92 1.18"/><polygon class="cls-1" points="4.57 1.18 18.78 19.53 15.09 1.18 4.57 1.18"/><polygon class="cls-1" points="16.52 1.18 23.2 18.23 24.69 1.18 16.52 1.18"/><polygon class="cls-1" points="26.32 1.18 27.81 18.23 34.49 1.18 26.32 1.18"/><polygon class="cls-1" points="47.07 1.18 36.1 22.02 50 11.96 50 1.18 47.07 1.18"/><polygon class="cls-1" points="0.97 1.18 0.97 11.94 14.91 22.02 3.94 1.18 0.97 1.18"/><polygon class="cls-1" points="0.97 21.62 11.31 25.29 11.69 25.29 0.97 14.24 0.97 21.62"/><polygon class="cls-1" points="39.32 25.29 39.7 25.29 50 21.63 50 14.28 39.32 25.29"/><polygon class="cls-1" points="48.79 25.29 50 25.29 50 24.6 48.79 25.29"/><rect class="cls-2" width="51" height="27"/></g></g></svg>