<svg xmlns="http://www.w3.org/2000/svg" viewBox="0 0 1226 1029"><defs><style>.cls-1{fill:#a9adae;}.cls-2{fill:none;}</style></defs><g id="Calque_2" data-name="Calque 2"><g id="Fond"><polygon class="cls-1" points="836.14 670.94 772.12 730.96 789.78 724.84 795.66 724.6 797.78 726.02 799.89 724.37 802.96 724.84 805.54 725.07 812.37 729.78 814.96 732.84 822.25 732.84 829.79 729.78 832.38 732.84 832.85 738.49 836.14 738.49 838.49 742.02 840.85 744.61 845.32 750.49 843.44 756.61 848.15 763.2 851.44 767.67 851.44 770.5 854.27 770.5 856.15 772.85 858.74 782.27 856.62 788.86 855.44 791.92 855.44 798.27 862.27 796.86 866.27 793.33 873.09 794.03 878.51 792.86 883.22 794.03 887.45 792.39 892.87 791.45 896.16 791.92 902.75 786.97 913.81 786.03 927.55 790.5 927.55 785.56 930.76 786.03 941.12 788.15 943.23 786.5 946.76 783.91 949.12 784.38 950.29 787.45 952.65 786.74 957.83 784.62 962.53 784.86 967.01 783.91 976.89 786.03 983.48 782.97 987.25 777.56 991.01 772.85 992.19 769.79 995.25 766.5 1000.66 759.67 1003.96 754.96 1003.96 748.85 1006.31 748.85 1009.14 749.79 1011.73 746.73 1015.49 746.02 1016.67 741.08 1020.2 746.02 1023.26 748.14 1027.02 759.67 1027.02 765.56 1028.67 768.61 1034.09 765.32 1034.09 762.49 1035.5 759.91 1037.62 757.32 1040.67 757.32 1046.32 753.32 1046.32 745.08 1054.33 747.43 1059.27 750.73 1066.33 755.43 1071.04 758.73 1075.04 754.26 1078.33 747.67 1079.51 739.54 1081.63 739.54 1081.63 737.77 1083.05 737.77 1059.35 678.79 993.09 685.18 993.09 659.63 988.48 657.1 980.16 657.99 980.16 686.22 948.66 689.34 934.25 684.74 928.31 691.12 914.05 692.31 910.04 690.83 910.04 662.9 911.76 662.63 911.8 662.21 899.24 657.81 881.57 659.81 881.6 660.46 882.33 660.48 882.36 661.68 882.42 662.35 882.42 683.35 836.14 670.94"/><path class="cls-1" d="M560.2,517.41H35.33A31.67,31.67,0,0,0,3.66,549.08V904.8a31.66,31.66,0,0,0,31.67,31.67H560.2a31.66,31.66,0,0,0,31.67-31.67V549.08a31.67,31.67,0,0,0-31.67-31.67M365.55,624.15l.27.47-4.05,2.5-.35-.6,4.13-2.37m-12.85,15,5.52-2.24L357,638.31l1.68.28-4.14,1,19.27,4.93c-1,.21-1.27.38-1.53.32q-7.35-1.64-14.67-3.31c-2.77-.63-5.71-2.87-7.85.74l-4,1.43c0-.11-.08-.23-.13-.34l1.46-1.19,1.47-.16c0-.18,0-.36,0-.55l-6.68-.09-.4,1.07-1.11-.7-2.15,1.52,7.31.4-3.72,1.53c.44.53.67.8,1.17,1.37l-2.28.16-.59-1c-.29.32-.22.45-.2.59a2.67,2.67,0,0,1,0,.47c-2.88,0-6.65-1.26-5.66,4l-1.86-1.61c-.74,3.75-1.33,6.79-2.05,10.41l6.41-5.84.51.51-2.15,3.12,1.37,0-.6,1.14c.31.23.54.42,1,.75L331,666.16c.14.11.28.22.43.32l9.19-8.12c-.28,1.84-.17,2.79-.56,3.42-1.14,1.84-2.47,3.54-3.81,5.39l3.07-.73c-1.65,1.16-2.85,2-4.08,2.83s-2.22,1.38-3.33,2.07l.43.74c3.88-3,7.71-6,13.72-6.43l-3.09,2.06,1.23.75c-2.45,1-4.58,1.76-6.64,2.69s-4.26,1.81-4.11,4.51l14.7-7.32a2,2,0,0,1-1,1.86c-3.4,1.91-6.89,3.66-10.21,5.68a22.29,22.29,0,0,0-3.5,3.38l.64.66L348,672.61l.35.52-4.75,3.52,5.53-1.24c.05.17.11.34.16.51L347,677.77c-3.66,1.26-7.61,2.55-11.49,4-.69.26-1.11,1.28-2.23,2.66l19-4.74c.11.36.21.72.32,1.08l-16.69,5.15.13.33,14.07.11c.13.54.25,1.08.38,1.61a5.48,5.48,0,0,0-1.5-.09c-4.72.9-9.43,1.79-14.12,2.83-.64.14-1.1,1.07-1.91,1.9l18.27,2c0,.37,0,.74-.05,1.11l-13.87-.56,0,.36,7.9.8c0,.32,0,.65,0,1-2.44.17-4.88.34-7.25.52l8.14,2.48c-.09.33-.18.65-.26,1-2.48-.62-5-1.39-7.46-1.82s-4.94-.5-7.41-.73c0,.24,0,.47,0,.7l13.63,5.23c-5.72.74-10.3-4-16.51-1.8l11.62,4.45c-5.19,2.29-8.5-1.64-13.21-2.42,2.6,1.69,4.45,3.83,6.52,4.06a49,49,0,0,0,12.91-.28c3.63-.55,7.09-2.21,10.64-3.33,2.77-.87,5.57-1.65,8.35-2.46a37,37,0,0,1-7.15,3.69c-9.08,4.11-18.5,6.37-28.54,5.45-4.18-.39-6.17.66-4,5,0,0-.06.13-.18.41l-3.46-3.28-3,1.88c.25-1.32.43-2.28.72-3.79l-6.23-.73,4.92,5.92-.36.46-4.31-3.16c-.24,1.88-.48,3.68-.72,5.49l-.81,0c-.22-1-.44-2-.76-3.34l-3.85-1.2c-.05,1.69-.08,2.8-.12,4.08l-1.21-.77-1.52,1.22.46,1.76,5.82-2.44a12.16,12.16,0,0,1-2.64,3.64,36.85,36.85,0,0,0-2.24,3.26l.74.56,3.33-2c-1.39,3.64-2.53,6.59-3.67,9.56-.3-.62-.64-1.32-1-2.1-.08.45-.14.77-.21,1.23l-2-.76-.69.47,2,3.45-.43,1,1.5,1c0,.45,0,.84,0,1.32l1.54-.34c.17.9.33,1.71.53,2.7a2.94,2.94,0,0,0-.26.46c-.1.25-.15.53-.25.86,6.47-.07,10.65-3,12.12-10.57,1.46,2.84,2.27,4.43,3.16,6.17l5.61-3.5.93,1.2,24.81-8.84c.21.46.42.92.64,1.37l-28.2,15,5.25,5.35a2.69,2.69,0,0,1-2.19-.29c-2.6-1.36-5.12-2.89-7.81-4.06-3.63-1.57-13.33,3.19-15.27,7.15-.84,1.71-1.32,3.12.32,4.64a25.6,25.6,0,0,1,2.42,3c-.09.11-.19.21-.29.32l-7.25-4.61-3,2.37c.56,2.26.92,3.71,1.37,5.56l-4.25-1.63a16.48,16.48,0,0,0-.17,3c.62,4.39-.32,5.5-4.47,5.33-.25,1.66-.49,3.31-.73,4.95l-.61-.45-6.78,9.27.33.19-3.26,3-1.07-.32-11.31,18,4.36,2.29c-.1.33-.22.66-.33,1l-5.82-.83a35.67,35.67,0,0,0-3.08,4.9c-1,2.4-5.07,4.32-1.56,7.67.1.1-.05.45-.11.89l-3.06-.7-8.36,14.11c.12,3.71.25,7.69.41,12.6l35.77-4.59.24,1-13.2,5.51c-2.95.52-5.67.91-8.35,1.51S259,852.2,256.1,853l4.45,8.7a2,2,0,0,1-1.76-.7c-1.86-2.33-3.72-4.67-5.52-7-1.2-1.58-2.54-1.94-4.3-.91a17.71,17.71,0,0,1-3.24,1.52c-3.58,1.18-6.47,3-7.18,7.47l5.59,1.54c-.36,1-.59,1.54-.81,2.13l-2.8.77c.17.67.31,1.21.5,2l-5.35-2.42L231,868.37l-8.54-3.27c-.14-.71-.26-1.3-.37-1.88l-1.37-.53.53-.71c-1-2.49-1.91-4.74-2.82-7l.63-.38,7,6.15c4.37-7.52,2.79-15.54,5.37-22.91.54,3.71,1.07,7.42,1.63,11.25l2.82-4.54c-.23-.66-.45-1.32-.66-1.91.89-1.47,1.82-2.83,2.57-4.28.56-1.08.69-2.42,1.36-3.39,2.17-3.16,5.06-5.8,5.42-10.06.12-1.5,1.4-3,2.45-4.32,1.92-2.34,4.05-4.51,6-6.6l-2.76-5.53,8.65-2.23-7.95-3.46,8.12-6.47c.27.27.53.55.79.82l2.53-4.58L247.86,787l7.92-.39c1-1.61,2.72-3.1,3-4.79.84-6-2.51-10.43-6.57-14.07l-8.82-6.35.09-.62,9.86.52c-4.81-23.2-6.56-41.9-4-44.45,1,2,2.32,3.76,2.88,5.76,1.21,4.29,2,8.69,3,13,1.19,4.89,2.35,9.79,3.8,14.61.86,2.88,2.25,5.6,3.5,8.63l4.95-4.5,1.19,6c3.92-.86,6.86-5.41,11.82-3.1a4.6,4.6,0,0,1-.63,1c-3,2.67-6.18,5.19-9,8-1.79,1.82-3.94,3.95-4.4,6.25-.87,4.27-.65,8.77-.76,13.18,0,.32,1.2,1.08,1.51.93,2.57-1.22,5.06-2.6,7.07-3.67,1.7-5.71,6.61-9.66,5-15.76l1.18-.41,4.12-5.28c-1.59-2.39-2.66-4-3.33-5,1.81.05,4.87.93,5.57,0,2.51-3.32-.48-5.75-2.5-8.17l2-.15c-.09-.85-.16-1.46-.33-3.06l4.09,3.93c.18-2.53,3.54-5,0-7.91l1.61-1.74-2.55-3.58,2.16,1.16c.43-.26,1.41-.6,1.39-.87-.16-1.92-.52-3.83-.79-5.53l1.11.74,2.58-2-4.92-5.69c-.31.17-.61.35-.91.53l.65-1.24,2,.33c-.41-1-.7-1.74-1-2.56l1.4-1.77-.23-.24-1.91,1.83L288,716.22l1.81.69-1.15-2.08-2.1.56,2.79-5.79-5.08,1.67-1.06-1.21-1,1.06-.3-.51,3.65-3.88-.36-.49-8.48,4.8-.59-.94L282,705l-5.86,1.14c-.08-.3-.16-.61-.23-.91l5.78-2c-1.79-2.57-7.31-4-12.11-3.48-1.6.18-3.29-.36-4.93-.57,0-.42.05-.83.08-1.24l4.69-.65c.06-.47.12-1,.19-1.52l-6-4.22.43-.63,10.47,5.87L275,696l1.12-1c-.53-2.75-1.43-5.3-4.5-6s-6-.94-9-1.38c-1.64-.23-3.29-.43-4.94-.64l.06-.71,4.36-.24L260,684.23c.09-.2.19-.39.29-.58l9,2.29c0-.11.07-.23.11-.34l-2.33-1.31,7.8.89c-.7-1.77-.86-3.67-1.86-4.43-3.41-2.59-7.13-4.77-10.72-7.11L258.21,671c.14-.3.29-.61.42-.91l4.52,1.73c-.35-.92-.57-1.49-.95-2.47l12.6,8c.37-.55.57-.83.74-1.1l-6.39-4.11.39-.66,7.14,2.74c-.82-1.73-1.1-3.1-1.92-3.91-2.64-2.57-5.51-4.9-8.22-7.39-1.23-1.13-2.29-2.44-3.42-3.66l.54-.53,2.08,1.05-2.19-2.61.71-.37,13.21,11-8.79-11.17.93-.75L277.9,665c.8-1.16,1.47-2.13,2.27-3.27l-9.59-13,.62-.52,1.45,1.17c.16-.25.34-.52.42-.66l7.38,9.62.65-.42q-2.85-7.31-5.68-14.6l.53-.27,2.75,4.06c-.09-.66-.17-1.19-.39-2.78l6.13,8.6a26.7,26.7,0,0,0-1.65-4.34c-.56-1.37-1-2.8-1.45-4.2l.69-.26c.46.78.93,1.56,1.4,2.33l.29-.11c-.65-2.07-1.28-4.13-1.9-6.13-14.74,2-29.54-.82-30.58-5.83,6.35,5.11,13.62,5.51,21.2,5.2l10.41-1.2c-.07-.89-.11-1.39-.15-1.88l1.86-.23-3.49-2.22-.81.94-.41-1.59-5-4.2-2.8.31c0-.19,0-.38-.07-.58,1-.13,2-.26,2.53-.34a77.1,77.1,0,0,1-7.74-4.57,36.22,36.22,0,0,1-7.26-6.65c-1.94-2.5-3.08-5.64-4.57-8.51a46.67,46.67,0,0,0,21,19.06c.64,1.23,1.07,2.08,1.51,2.92l1.19-.13,2.74,2.26.33-.73h0l-5.46-8,.77-.55c.35.42.71.83,1.64,1.91-.58-1.13-.74-1.45-.91-1.77l.47-.12c-.27-1.19-.53-2.38-.64-2.86l-2.44-1.5c.12.51.28,1.21.45,1.91l-.6.21-2.52-3.34,1.22-.54c-3.49-4.53-7.84-8.62-7.68-16a42.24,42.24,0,0,0,11.28,17.17q1.81,2.75,3.64,5.47l.41-.2-1.8-6-.19.08c0,.44.09.88.13,1.33l-.44.11-3.8-7.36,1.2.36c0-.73,0-1.39.06-2l-.77.06-1-16.69,1.23-.2,2.19,6.75.35-.08q-.66-2.91-1.3-5.82l.91-.3c.16.81.31,1.62.57,3.07l.71-2.18c.27,2.08.52,4,.77,6l.51-.1c.33-2.64.67-5.29,1-7.86l1.06.21c.82,2.63,1.66,5.25,2.48,7.88l.88-.15-1.47-11.13.73-.09c.41.73.81,1.48,1.34,2.43.93,4.32,1.92,8.9,2.91,13.48l.46-.08,0-3.18.5,0,.42,3.87.79-.17-4.26-16.58,1-.23c.78,3,1.56,6,2.47,9.51.46-1.82.78-3.07,1.1-4.31l.61,0q.82,6.31,1.64,12.65a29,29,0,0,0,.71-8.89c-.14-2.87-.47-5.73-.71-8.56l1.93-.19c.28-.57.49-1,.91-1.89.3.86.48,1.29.58,1.73a6.53,6.53,0,0,1,.15,1.09c.65-1.68,1.33-3.47,2-5.26l1,.21c-.19,3.41-.37,6.83-.56,10.25h.27q.75-3.21,1.48-6.42l1.23.18.11,7-1.36,2.49,2.33-2.33c-.05.83-.08,1.32-.11,1.85l1.17,1.16c1.7-4.45,3.35-8.75,5-13.15l.6,1,1.87-1.41c-.87,4.6-1.61,8.56-2.35,12.51l.32.09c.8-2.46,1.61-4.92,2.66-8.1.39,1.36.73,1.9.65,2.36-.64,3.5-1.35,7-2,10.49l-.25,0c0-.34,0-.68,0-1l-.38,0c.07.79.15,1.59.23,2.39a71.66,71.66,0,0,0,3.46-10.3c.37-1.39.34-2.89.61-4.31.08-.45.57-.81.88-1.21l.82.31c-.24,1.81-.49,3.61-.74,5.46l1.49-.29c-.24,1.7-.45,3.21-.66,4.71l.19,0q1-3.63,2-7.26l.8.21c-.38,1.64-.77,3.29-1.16,5l.89-.44,4-5.83.82.16c-.06,3.7-.11,7.4-.17,11.1l.5.06,1.52-8.69.89.84,1.38-.46c.23,2.27.44,4.44.66,6.59h.86c-.25.64-.49,1.29-.83,2.16l4.59-4.73.48.27c-.3,1-.59,1.92-.89,2.88l.54.17,2.85-7.44.91.28-4.84,15.06,1.33.64,7-13.68.95.42c-.66,1.72-1.29,3.45-2,5.15s-1.58,3.47-2.22,5.26-1,3.44-1.46,5.17l1.09.51c1.62-2.17,3.24-4.34,5-6.76-.54,1.42-1,2.56-1.42,3.7l.41.21,5.25-8.59.55.27c-.56,1.48-1.13,3-1.69,4.43l.35.14,3.93-5.45.86.62-2.45,3.93,1.6-.13-4.73,10.66c1.79-1.51,3.32-2.64,4.66-4s2.51-2.82,3.75-4.24l.54.37c.36-.95.72-1.89,1.16-3l1.19,1.61-.78,3.77,4.31-2.29.45.36-2.88,4.45c-.4,3.51-.75,6.62-1.1,9.72l4-3.36a9.27,9.27,0,0,1-1.76,4.41c-.89,1.22-2,2.29-3,3.48l1.3,0c-.9.51-1.44.8-2.11,1.19l1.09,1-1.46,1.45-1.24-.4-.81.66c3.39,3,13.7-2.21,15-7.66l-1.37.3,4.14-3.86,1.11.81-7.74,10.42,12.5-4a40.46,40.46,0,0,1-7.64,4.79c-5.58,2.36-11.31,4.34-17,6.47l.36,1M283.09,713.8l.41-.13,5.93,9.63-.46,1-5-.34,2.64-1.25-6-4.6.33-.5,3.31,1.53c-.43-1.94-.79-3.63-1.16-5.32m-26.63-30.58.15-.29,2.13.82c0,.1-.08.2-.13.3l-2.15-.83m13.46-60.56-.48.4-2.15-2.55.62-.47c.67.88,1.33,1.75,2,2.62m-.63-5.14.49-.4,2.15,2.82-.33.27-2.31-2.69"/><path class="cls-1" d="M560.2,75.66H35.33A31.67,31.67,0,0,0,3.66,107.33V463.06a31.67,31.67,0,0,0,31.67,31.66H560.2a31.67,31.67,0,0,0,31.67-31.66V107.33A31.67,31.67,0,0,0,560.2,75.66M398.86,285c-.24,4.06-1.83,5.34-5.84,4.36a36.51,36.51,0,0,1-6.92-2.9c-9.7-4.63-19.38-9.31-30.15-14.49.42,2.89.68,4.82,1,6.75,1,6.55,2.77,13.08,3.05,19.66.86,20.11-4.93,42.48-24.55,56.07S298.91,368,279.6,368s-45.11-2.62-55.92-15.11a61.44,61.44,0,0,0-4.8-4.76c-13.58-10.78-20.62-24.76-21.2-42.12-.43-12.76,3.12-24.24,8.91-35.57,3.9-7.64,7.44-15.32,13.75-21.18,3.47-3.22,7.81-5.47,11.52-8.45,8.78-7,18.86-9.94,29.95-10.17,4.07-.08,8.13-.72,13.08-1.19,1.94-1.79,2.22-4.68.87-8-1.57-3.89-1.24-7.8-.92-12,.53-7-.81-14.07-1.39-21.58,4.12-.06,3.86,3.84,4.78,6.42,1.38,3.86,2.15,8,3.65,11.76,2.64,6.73,5.62,8.08,12.88,6.29,4.67-1.16,9.5-2,13.94-3.75,9.53-3.83,19-2,28.54-.55,16,2.41,29.6,10.35,40.8,21.39,15.27,15,22.11,34,20.82,55.6"/><path class="cls-1" d="M1193.64,75.66H668.76a31.67,31.67,0,0,0-31.67,31.67V463.06a31.67,31.67,0,0,0,31.67,31.66h524.88a31.66,31.66,0,0,0,31.66-31.66V107.33a31.66,31.66,0,0,0-31.66-31.67M986.48,379.93a15.12,15.12,0,0,0-2.39,8,107.59,107.59,0,0,1-1.4,13,17.24,17.24,0,0,1-7.52,11.83,39.08,39.08,0,0,1-11,5.09,116,116,0,0,1-15.48,3.76c-6.34.91-12.71,1.8-19.18,1.56-5.48-.2-10.9-.52-16.37-1.19A83.65,83.65,0,0,1,895,417.83c-4.34-1.54-8.72-3.37-11.06-7.69a29.52,29.52,0,0,1-3.06-8.23c-1-5-1.38-10.16-2.18-15.23a7.74,7.74,0,0,0-1.57-3.17c-3.29-4.45-3.09-7.67.87-11.63a10.78,10.78,0,0,1,2-1.74,15.6,15.6,0,0,0,4.76-4.71,26.11,26.11,0,0,1,12.43-9.34c2.56-.95,5.09-2,7.59-3a18,18,0,0,0,2.22-1.41,2.18,2.18,0,0,0,.61-3.6,15.5,15.5,0,0,1-3.33-5.55c-.32-1.11-2.45-1.83-3.87-2.49-4.84-2.24-6.26-4.65-5.7-9.84.12-1.05-.11-2.15,0-3.19.24-1.57.29-3.37,1.12-4.62,1.41-2.13,1.36-4.16.85-6.43-.21-.93-1.55-2.39.81-2.69.2,0,.48-1,.4-1.4a35.35,35.35,0,0,0-1.36-6.37c-1.85-4.91-3.93-9.74-6-14.57a58.2,58.2,0,0,1-4-17.82c-.83-9.19.91-17.73,3.89-26.31,2.26-6.49,3.55-13.31,5.66-19.86,2.17-6.7,2.91-13.67,4.43-20.49a33.72,33.72,0,0,0,.68-5.85c.27-6.69.65-13.37.63-20.06,0-7.9-.37-15.79-.64-23.69-.07-2-.56-3.91-.59-5.86,0-2.66.14-2.78,2.78-2.88l27.65-1v.32h20.81a17.74,17.74,0,0,1,2.63.07c2.17.33,2.69,1.24,2.49,3.43-.47,5-1.13,10-1.16,15-.06,9.75-.16,19.49-.06,29.23,0,1.59-.4,3.35,1.55,4.33.31.16.34,1,.41,1.49,1.68,12.25,4,24.32,8.27,36,2.92,8,6.12,16,7.34,24.5.68,4.73,1.09,9.52.15,14.33-1,5.25-1.73,10.59-4.06,15.49-1.51,3.15-3.11,6.26-4.65,9.4-2,4-2.63,8-.77,12.3.58,1.33.3,3,.33,4.57,0,3,.3,5.84,1.84,8.55.64,1.12.48,2.69.62,4.06,0,.3-.35.65-.31.93.66,4.17-1.82,6.48-4.93,8.45a10.74,10.74,0,0,0-.85.66l1,0c6.14,0,12.29-.08,18.42,0,1.07,0,1.36-.46,1.46-1.26a36.16,36.16,0,0,0,.29-3.89c0-.87-.46-1.81-.24-2.59a10.27,10.27,0,0,1,1.6-2.5c.37.72,1,1.41,1,2.15.2,3.26.29,6.49,1.7,9.55a2.59,2.59,0,0,1-.17,2.23c-2,2.66-1.31,5.76-1.65,8.7a3.78,3.78,0,0,1-.23,1.28c-.19.33-.62.74-.93.74a1.3,1.3,0,0,1-1-.75,10.31,10.31,0,0,1-.36-2.54c0-1.09.2-2.2.11-3.29-.18-2-1.11-2.8-3.14-2.81q-10.9,0-21.79,0c-1.72,0-3.77,2.12-3.66,3.74.11,1.44,1.33,1.49,2.36,1.85a110.3,110.3,0,0,1,15,6.4c3.11,1.66,5.26,4.24,7.56,6.74a26.28,26.28,0,0,0,2.86,2.62c1.5,1.19,3.22,2.13,4.58,3.45,2.2,2.13,2.69,7.21.9,9.87"/><rect class="cls-2" width="1226" height="1029"/></g></g></svg>